<svg width="24" height="24" viewBox="0 0 24 24" fill="none" xmlns="http://www.w3.org/2000/svg">
<path d="M12 22C7.582 22 4 19.418 4 15V14.912C4 12.794 5.189 11.1 7 10C8.732 8.948 9.757 7.01 9.5 5L9 2L10.854 2.795C14.1934 4.22598 16.9753 6.70665 18.778 9.861C19.5789 11.2629 20.0001 12.8495 20 14.464V15C20 16.562 19.552 17.895 18.778 18.965" stroke="black" stroke-width="2" stroke-linecap="round" stroke-linejoin="round"/>
<path d="M12 22C10.343 22 9 20.567 9 18.8C9 17.4 10.016 16.279 10.91 15.252L12 14L13.09 15.252C13.984 16.28 15 17.4 15 18.8C15 20.567 13.657 22 12 22Z" stroke="black" stroke-width="2" stroke-linecap="round" stroke-linejoin="round"/>
</svg>
