<svg width="24" height="24" viewBox="0 0 24 24" fill="none" xmlns="http://www.w3.org/2000/svg">
<path d="M17 2H7C6.33696 2 5.70107 2.26339 5.23223 2.73223C4.76339 3.20107 4.5 3.83696 4.5 4.5V19.5C4.5 20.163 4.76339 20.7989 5.23223 21.2678C5.70107 21.7366 6.33696 22 7 22H17C17.663 22 18.2989 21.7366 18.7678 21.2678C19.2366 20.7989 19.5 20.163 19.5 19.5V4.5C19.5 3.83696 19.2366 3.20107 18.7678 2.73223C18.2989 2.26339 17.663 2 17 2V2ZM14.5 16.375V8.875C14.5 8.70924 14.5658 8.55027 14.6831 8.43306C14.8003 8.31585 14.9592 8.25 15.125 8.25H16.375C16.5408 8.25 16.6997 8.31585 16.8169 8.43306C16.9342 8.55027 17 8.70924 17 8.875V16.375C17 16.5408 16.9342 16.6997 16.8169 16.8169C16.6997 16.9342 16.5408 17 16.375 17H15.125C14.9592 17 14.8003 16.9342 14.6831 16.8169C14.5658 16.6997 14.5 16.5408 14.5 16.375ZM11.375 17C11.2092 17 11.0503 16.9342 10.9331 16.8169C10.8158 16.6997 10.75 16.5408 10.75 16.375V11.375C10.75 11.2092 10.8158 11.0503 10.9331 10.9331C11.0503 10.8158 11.2092 10.75 11.375 10.75H12.625C12.7908 10.75 12.9497 10.8158 13.0669 10.9331C13.1842 11.0503 13.25 11.2092 13.25 11.375V16.375C13.25 16.5408 13.1842 16.6997 13.0669 16.8169C12.9497 16.9342 12.7908 17 12.625 17H11.375ZM7.625 17C7.45924 17 7.30027 16.9342 7.18306 16.8169C7.06585 16.6997 7 16.5408 7 16.375V13.875C7 13.7092 7.06585 13.5503 7.18306 13.4331C7.30027 13.3158 7.45924 13.25 7.625 13.25H8.875C9.04076 13.25 9.19973 13.3158 9.31694 13.4331C9.43415 13.5503 9.5 13.7092 9.5 13.875V16.375C9.5 16.5408 9.43415 16.6997 9.31694 16.8169C9.19973 16.9342 9.04076 17 8.875 17H7.625Z" fill="black"/>
</svg>
