<svg width="24" height="24" viewBox="0 0 24 24" fill="none" xmlns="http://www.w3.org/2000/svg">
<path d="M12 5C14.2543 5 16.4163 5.89553 18.0104 7.48959C19.6045 9.08365 20.5 11.2457 20.5 13.5C20.5 15.7543 19.6045 17.9163 18.0104 19.5104C16.4163 21.1045 14.2543 22 12 22C9.74566 22 7.58365 21.1045 5.98959 19.5104C4.39553 17.9163 3.5 15.7543 3.5 13.5C3.5 11.2457 4.39553 9.08365 5.98959 7.48959C7.58365 5.89553 9.74566 5 12 5V5ZM12 6.5C10.1435 6.5 8.36301 7.2375 7.05025 8.55025C5.7375 9.86301 5 11.6435 5 13.5C5 15.3565 5.7375 17.137 7.05025 18.4497C8.36301 19.7625 10.1435 20.5 12 20.5C13.8565 20.5 15.637 19.7625 16.9497 18.4497C18.2625 17.137 19 15.3565 19 13.5C19 11.6435 18.2625 9.86301 16.9497 8.55025C15.637 7.2375 13.8565 6.5 12 6.5V6.5ZM12 8C12.1812 8.00001 12.3563 8.06564 12.4929 8.18477C12.6295 8.30389 12.7184 8.46845 12.743 8.648L12.75 8.75V13.25C12.7499 13.44 12.6778 13.6229 12.548 13.7618C12.4183 13.9006 12.2407 13.9851 12.0511 13.998C11.8615 14.011 11.6741 13.9515 11.5267 13.8316C11.3793 13.7117 11.2829 13.5403 11.257 13.352L11.25 13.25V8.75C11.25 8.55109 11.329 8.36032 11.4697 8.21967C11.6103 8.07902 11.8011 8 12 8V8ZM19.147 5.114L19.23 5.174L20.388 6.138C20.533 6.25995 20.6265 6.43225 20.6496 6.62029C20.6728 6.80833 20.6239 6.99817 20.5129 7.15166C20.4018 7.30515 20.2368 7.41092 20.0509 7.44771C19.8651 7.4845 19.6722 7.4496 19.511 7.35L19.429 7.29L18.27 6.326C18.125 6.20405 18.0315 6.03175 18.0084 5.84371C17.9852 5.65567 18.0341 5.46584 18.1451 5.31234C18.2562 5.15885 18.4212 5.05308 18.6071 5.01629C18.7929 4.9795 18.9858 5.0144 19.147 5.114V5.114ZM14.25 2.5C14.44 2.50006 14.6229 2.57224 14.7618 2.70197C14.9006 2.8317 14.9851 3.0093 14.998 3.19888C15.011 3.38846 14.9515 3.57589 14.8316 3.7233C14.7117 3.87071 14.5403 3.9671 14.352 3.993L14.25 4H9.75C9.55998 3.99994 9.37706 3.92776 9.23821 3.79803C9.09936 3.6683 9.01493 3.4907 9.00197 3.30112C8.98902 3.11154 9.04852 2.92411 9.16843 2.7767C9.28835 2.62929 9.45975 2.5329 9.648 2.507L9.75 2.5H14.25Z" fill="black"/>
</svg>
